<svg xmlns="http://www.w3.org/2000/svg" height="800" width="1200" viewBox="-44.997555 -21.0104 389.97881 126.0624"><defs><linearGradient gradientUnits="userSpaceOnUse" gradientTransform="scale(1.05451 .9483)" x1="2.587" y1="3.9514" x2="87.4856" y2="3.9514" id="a" spreadMethod="pad"><stop offset="0" stop-color="#ed1c24"/><stop offset=".3315" stop-color="#ed1c24"/><stop offset=".3933" stop-color="#aa161e"/><stop offset=".3933" stop-color="#aa161e"/><stop offset=".5729" stop-opacity=".9922" stop-color="#aa161e"/><stop offset=".6354" stop-color="#ed1c24"/><stop offset="1" stop-color="#ed1c24"/></linearGradient></defs><path d="M131.5566 12.7283v16.4929h-.0762l-10.8891-19.1053-6.0367 2.9461v24.49h5.351V17.9893h.075l11.195 19.5625h5.732V10.1181l-5.351 2.6102m17.5516 14.431l3.5176-10.8588h.074l3.4034 10.8588zm6.913-17.0457h-.008l-7.9867 3.8987-8.393 23.5396h6.038l1.9082-5.657h10.126l1.7594 5.657h6.2273l-9.671-27.4383m105.1834 17.0457l3.5211-10.8588h.081l3.394 10.8588zm6.9269-17.0457h-.0116l-7.989 3.8987-8.393 23.5396h6.038l1.9048-5.657h10.1248l1.7663 5.657h6.2227l-9.6629-27.4383m-83.5233.0024h-19.5026l-2.7904 4.8294v.0251h8.2902V37.552h5.7344V14.9705h5.4722l2.7961-4.8546m2.287 2.7892V37.552h5.7332V10.116h-.0104l-5.7228 2.7892m22.6925 20.5091c-3.094 0-7.458-1.9094-7.458-9.5912 0-7.6809 4.364-9.5881 7.458-9.5881 3.094 0 7.4464 1.9072 7.4464 9.588 0 7.6819-4.3524 9.5913-7.4464 9.5913m0-24.0317c-.254 0-.5427.005-.8428.0265l-9.4899 4.6297c-1.6854 2.153-2.8515 5.2737-2.8515 9.7843 0 12.8792 9.5475 14.4459 13.1842 14.4459 3.625 0 13.1726-1.5667 13.1726-14.446 0-12.876-9.5475-14.4404-13.1726-14.4404m33.9533 3.3457v16.4929h-.0692l-10.8983-19.1053-6.0264 2.9461v24.49h5.3452V17.9893h.0693l11.21 19.5625h5.7262V10.1181l-5.3568 2.6102m56.4425 19.857h-13.6344V10.1181l-5.7377 2.7974V37.552h16.509l2.8631-4.9666M127.0852 69.8476h-7.0308v-7.3274h7.2987c2.0607 0 4.1273.9155 4.1273 3.3192 0 2.7888-1.6037 4.0082-4.3952 4.0082m-7.0308-17.9543h6.5725c2.5976 0 4.2035.689 4.2035 2.9425 0 2.1772-1.7953 3.0615-4.05 3.0615h-6.726v-6.004zm12.9164 7.9112c1.1475-.5772 3.3618-1.682 3.3618-5.6186 0-2.8275-1.7236-7.031-8.445-7.031h-7.5515l-5.7816 2.823v24.6144h11.6129c5.6166 0 7.1116-.9557 8.677-2.4866 1.4513-1.4143 2.3691-3.4774 2.3691-5.6557 0-2.7085-.881-5.3823-4.2427-6.6455m50.3977-10.0359v16.492h-.075L172.4077 47.155l-6.0368 2.9497v24.4877h5.3487V55.0288h.0763l11.1938 19.5635h5.7343V47.1576l-5.3556 2.611M147.3948 64.193l3.5154-10.8464h.0762l3.4023 10.8464zm6.913-17.038h-.007l-7.989 3.8963-8.392 23.541h6.0357l1.9084-5.6556h10.1282l1.7537 5.6556h6.2353l-9.6734-27.4374m62.8074.0095l-8.878 1.5643-8.9933 9.583V47.16l-5.7263 2.7982v24.6342h5.7263v-9.29l2.6784-2.7464 8.4854 12.0364h7.3656l-11.8335-16.2029 11.1754-11.225" fill="#17314b"/><path d="M92.2545 9.885v64.4778l-34.6483 9.2669c-1.5874.3671-2.7326.6106-3.8779.1917-.8773-.3788-1.5943-1.3195-2.2142-2.198L40.8305 66.937c-.6223-.8866-1.3323-1.8517-2.2051-2.2052-1.1429-.4443-2.2927-.1696-3.8894.1758L0 74.1954V9.7027L34.6136.4124C36.1964.0616 37.3532-.218 38.4973.237c.8785.3613 1.6232 1.3417 2.2431 2.2215l10.724 14.699c.627.8933 1.3196 1.871 2.212 2.2115 1.1568.433 2.2928.1835 3.8756-.1777l34.7025-9.3061" fill="#ed1c24"/><path d="M32.9974 4.1524l-30.2694 8.14v61.385l32.008-8.552c1.6025-.3455 2.7465-.6225 3.8895-.1782.8797.3558 1.5828 1.321 2.205 2.2053l10.6882 14.684c.6154.883 1.3347 1.8236 2.2098 2.2003 1.1452.4189 2.295.1753 3.8778-.194l34.6483-9.267v-60.525l-35.6989 9.5695c-1.6012.3613-2.7373.6234-3.9148.1904-.9063-.354-1.6428-1.3078-2.2997-2.1876L39.0781 6.1914c-.6627-.8798-1.3184-1.859-2.205-2.2166-.4261-.1628-.859-.2277-1.3116-.2277-.7608 0-1.577.1849-2.564.4054" fill="url(#a)" transform="translate(0 -.218)"/></svg>